<?xml version="1.0" encoding="UTF-8" standalone="no"?>
<svg
   width="16"
   height="16"
   fill="currentColor"
   class="bi bi-box-arrow-in-down"
   viewBox="0 0 16 16"
   version="1.1"
   id="svg1179"
   sodipodi:docname="box-arrow-in-down-white.svg"
   inkscape:version="1.1.2 (b8e25be8, 2022-02-05)"
   xmlns:inkscape="http://www.inkscape.org/namespaces/inkscape"
   xmlns:sodipodi="http://sodipodi.sourceforge.net/DTD/sodipodi-0.dtd"
   xmlns="http://www.w3.org/2000/svg"
   xmlns:svg="http://www.w3.org/2000/svg">
  <defs
     id="defs1183" />
  <sodipodi:namedview
     id="namedview1181"
     pagecolor="#ffffff"
     bordercolor="#666666"
     borderopacity="1.0"
     inkscape:pageshadow="2"
     inkscape:pageopacity="0.0"
     inkscape:pagecheckerboard="0"
     showgrid="false"
     inkscape:zoom="34.3125"
     inkscape:cx="8"
     inkscape:cy="8"
     inkscape:window-width="1310"
     inkscape:window-height="771"
     inkscape:window-x="0"
     inkscape:window-y="25"
     inkscape:window-maximized="0"
     inkscape:current-layer="svg1179" />
  <path
     fill-rule="evenodd"
     d="M3.5 6a.5.5 0 0 0-.5.5v8a.5.5 0 0 0 .5.5h9a.5.5 0 0 0 .5-.5v-8a.5.5 0 0 0-.5-.5h-2a.5.5 0 0 1 0-1h2A1.5 1.5 0 0 1 14 6.5v8a1.5 1.5 0 0 1-1.5 1.5h-9A1.5 1.5 0 0 1 2 14.5v-8A1.5 1.5 0 0 1 3.5 5h2a.5.5 0 0 1 0 1h-2z"
     id="path1175"
     style="fill:#ffffff;fill-opacity:1" />
  <path
     fill-rule="evenodd"
     d="M7.646 11.854a.5.5 0 0 0 .708 0l3-3a.5.5 0 0 0-.708-.708L8.5 10.293V1.5a.5.5 0 0 0-1 0v8.793L5.354 8.146a.5.5 0 1 0-.708.708l3 3z"
     id="path1177"
     style="fill:#ffffff;fill-opacity:1" />
</svg>
