<?xml version="1.0" encoding="UTF-8" standalone="no"?>
<!-- Generator: Adobe Illustrator 18.0.0, SVG Export Plug-In . SVG Version: 6.00 Build 0)  -->

<svg
   version="1.1"
   id="Capa_1"
   x="0px"
   y="0px"
   viewBox="0 0 367.467 367.467"
   style="enable-background:new 0 0 367.467 367.467;"
   xml:space="preserve"
   sodipodi:docname="copyright-solid-white.svg"
   inkscape:version="1.1.2 (b8e25be8, 2022-02-05)"
   xmlns:inkscape="http://www.inkscape.org/namespaces/inkscape"
   xmlns:sodipodi="http://sodipodi.sourceforge.net/DTD/sodipodi-0.dtd"
   xmlns="http://www.w3.org/2000/svg"
   xmlns:svg="http://www.w3.org/2000/svg"><defs
   id="defs945" /><sodipodi:namedview
   id="namedview943"
   pagecolor="#ffffff"
   bordercolor="#666666"
   borderopacity="1.0"
   inkscape:pageshadow="2"
   inkscape:pageopacity="0.0"
   inkscape:pagecheckerboard="0"
   showgrid="false"
   inkscape:zoom="1.4776837"
   inkscape:cx="183.39513"
   inkscape:cy="183.7335"
   inkscape:window-width="1323"
   inkscape:window-height="769"
   inkscape:window-x="0"
   inkscape:window-y="25"
   inkscape:window-maximized="0"
   inkscape:current-layer="Capa_1" />
<g
   id="g910">
	<path
   d="M183.73,0.018C82.427,0.018,0,82.404,0,183.733c0,101.289,82.427,183.716,183.73,183.716   c101.315,0,183.737-82.427,183.737-183.716C367.467,82.404,285.045,0.018,183.73,0.018z M183.73,326.518   c-78.743,0-142.798-64.052-142.798-142.784c0-78.766,64.055-142.817,142.798-142.817c78.752,0,142.807,64.052,142.807,142.817   C326.536,262.466,262.481,326.518,183.73,326.518z"
   id="path906"
   style="stroke:#ffffff;stroke-opacity:1;fill:#ffffff;fill-opacity:1" />
	<path
   d="M244.036,217.014c-11.737,20.141-33.562,32.635-56.956,32.635c-36.329,0-65.921-29.585-65.921-65.915   c0-36.36,29.592-65.955,65.921-65.955c23.395,0,45.219,12.54,56.956,32.641l1.517,2.627h44.28l-2.658-7.129   c-7.705-20.413-21.225-37.769-39.122-50.157c-17.942-12.42-39.017-19.009-60.973-19.009c-58.981,0-106.946,48.006-106.946,106.982   c0,58.98,47.965,106.941,106.946,106.941c21.956,0,43.03-6.567,60.973-19.006c17.897-12.391,31.417-29.741,39.122-50.154   l2.658-7.133h-44.28L244.036,217.014z"
   id="path908"
   style="stroke:#ffffff;stroke-opacity:1;fill:#ffffff;fill-opacity:1" />
</g>
<g
   id="g912">
</g>
<g
   id="g914">
</g>
<g
   id="g916">
</g>
<g
   id="g918">
</g>
<g
   id="g920">
</g>
<g
   id="g922">
</g>
<g
   id="g924">
</g>
<g
   id="g926">
</g>
<g
   id="g928">
</g>
<g
   id="g930">
</g>
<g
   id="g932">
</g>
<g
   id="g934">
</g>
<g
   id="g936">
</g>
<g
   id="g938">
</g>
<g
   id="g940">
</g>
</svg>
