<?xml version="1.0" encoding="UTF-8" standalone="no"?>
<svg
   class="ionicon"
   viewBox="0 0 512 512"
   version="1.1"
   id="svg878"
   sodipodi:docname="logo-google-playstore-white.svg"
   inkscape:version="1.1.2 (b8e25be8, 2022-02-05)"
   xmlns:inkscape="http://www.inkscape.org/namespaces/inkscape"
   xmlns:sodipodi="http://sodipodi.sourceforge.net/DTD/sodipodi-0.dtd"
   xmlns="http://www.w3.org/2000/svg"
   xmlns:svg="http://www.w3.org/2000/svg"
   xmlns:rdf="http://www.w3.org/1999/02/22-rdf-syntax-ns#"
   xmlns:cc="http://creativecommons.org/ns#"
   xmlns:dc="http://purl.org/dc/elements/1.1/">
  <defs
     id="defs882" />
  <sodipodi:namedview
     id="namedview880"
     pagecolor="#ffffff"
     bordercolor="#666666"
     borderopacity="1.0"
     inkscape:pageshadow="2"
     inkscape:pageopacity="0.0"
     inkscape:pagecheckerboard="0"
     showgrid="false"
     inkscape:zoom="1.0546875"
     inkscape:cx="256"
     inkscape:cy="256"
     inkscape:window-width="1323"
     inkscape:window-height="766"
     inkscape:window-x="0"
     inkscape:window-y="25"
     inkscape:window-maximized="0"
     inkscape:current-layer="svg878" />
  <title
     id="title874">Logo Google Playstore</title>
  <path
     d="M48 59.49v393a4.33 4.33 0 007.37 3.07L260 256 55.37 56.42A4.33 4.33 0 0048 59.49zM345.8 174L89.22 32.64l-.16-.09c-4.42-2.4-8.62 3.58-5 7.06l201.13 192.32zM84.08 472.39c-3.64 3.48.56 9.46 5 7.06l.16-.09L345.8 338l-60.61-57.95zM449.38 231l-71.65-39.46L310.36 256l67.37 64.43L449.38 281c19.49-10.77 19.49-39.23 0-50z"
     id="path876"
     style="fill:#ffffff;fill-opacity:1" />
  <metadata
     id="metadata1037">
    <rdf:RDF>
      <cc:Work
         rdf:about="">
        <dc:title>Logo Google Playstore</dc:title>
      </cc:Work>
    </rdf:RDF>
  </metadata>
</svg>
